<?xml version="1.0" standalone="no"?>
<!DOCTYPE svg PUBLIC "-//W3C//DTD SVG 20010904//EN"
 "http://www.w3.org/TR/2001/REC-SVG-20010904/DTD/svg10.dtd">
<svg version="1.0" xmlns="http://www.w3.org/2000/svg"
 width="512.000000pt" height="512.000000pt" viewBox="0 0 512.000000 512.000000"
 preserveAspectRatio="xMidYMid meet">
<metadata>
Created by potrace 1.14, written by Peter Selinger 2001-2017
</metadata>
<g transform="translate(0.000000,512.000000) scale(0.100000,-0.100000)"
fill="#000000" stroke="none">
<path d="M0 2560 l0 -2560 2560 0 2560 0 0 2560 0 2560 -2560 0 -2560 0 0
-2560z m1680 1305 c0 -4 211 -821 520 -2015 83 -321 154 -588 156 -592 3 -5
-70 -7 -162 -6 l-168 3 -85 343 -84 342 -398 0 -398 0 -10 -37 c-10 -37 -145
-585 -156 -630 -5 -23 -7 -23 -170 -23 -91 0 -165 3 -165 7 0 3 32 128 71 277
39 149 115 444 170 656 55 212 114 437 130 500 47 177 213 816 259 995 23 88
43 166 45 173 3 9 57 12 225 12 121 0 220 -2 220 -5z m1639 -142 c24 -82 95
-323 159 -538 63 -214 117 -400 120 -412 7 -37 17 -27 34 35 13 49 140 463
280 917 l43 140 243 3 242 2 0 -1310 0 -1310 -160 0 -160 0 0 648 c0 785 21
1606 46 1802 3 27 2 41 -3 35 -6 -5 -54 -152 -107 -325 -54 -173 -129 -412
-166 -530 -37 -118 -84 -270 -105 -337 l-38 -123 -141 0 -142 0 -193 633
c-107 347 -198 639 -203 647 -6 10 -7 3 -4 -20 29 -198 46 -794 46 -1682 l0
-748 -157 0 -158 0 0 1310 0 1310 240 0 241 0 43 -147z"/>
<path d="M1422 3439 c-18 -85 -91 -389 -162 -677 -72 -288 -130 -528 -130
-533 0 -5 132 -9 328 -9 l328 0 -112 453 c-62 248 -134 544 -159 657 -25 113
-49 218 -53 234 -6 24 -13 1 -40 -125z"/>
</g>
</svg>
